<svg width="463" height="461" viewBox="0 0 463 461" fill="none" xmlns="http://www.w3.org/2000/svg">
<circle cx="231" cy="231" r="230" fill="#8BA9F8" fill-opacity="0.5"/>
<circle cx="231" cy="231" r="230" fill="#7B9CF5" fill-opacity="0.5"/>
<circle cx="230.501" cy="230.501" r="230.501" fill="url(#paint0_linear_1582_21048)"/>
<circle cx="230.501" cy="230.501" r="230.501" fill="url(#paint1_linear_1582_21048)"/>
<path d="M218.498 79.2402C226.013 74.9199 235.362 74.9199 242.856 79.2402L366.187 150.133C373.701 154.453 378.376 162.504 378.376 171.145V311.182C378.376 337.555 356.818 358.999 330.35 358.999H309.204C306.131 358.999 304.238 355.655 305.829 353.038L321.032 328.034C321.723 326.898 322.931 326.186 324.264 326.144C327.673 326.035 334.108 325.782 335.224 325.403C341.164 323.386 345.437 317.78 345.438 311.182V178.342C345.437 176.938 344.686 175.642 343.466 174.94L232.66 111.245C231.44 110.543 229.936 110.543 228.716 111.245L117.91 174.94C116.69 175.642 115.938 176.938 115.938 178.342V311.182C115.938 319.478 122.693 326.204 131.026 326.204H230.688V326.146C248.714 326.126 263.349 311.554 263.349 293.605V194.435C263.349 192.266 265.116 190.508 267.294 190.508C283.306 190.508 296.287 203.432 296.287 219.375V293.605C296.287 304.485 293.624 314.716 288.911 323.73C288.872 323.788 288.852 323.848 288.812 323.907C288.799 323.933 288.784 323.958 288.771 323.983C288.387 324.74 287.97 325.463 287.569 326.202C287.568 326.204 287.567 326.205 287.566 326.207H287.569C287.431 326.423 287.293 326.659 287.155 326.874C287.167 326.856 287.175 326.836 287.187 326.817C287.182 326.824 287.179 326.831 287.175 326.837C287.168 326.848 287.162 326.861 287.155 326.872C287.037 327.088 286.899 327.304 286.761 327.52C286.031 328.737 285.242 329.935 284.414 331.094C284.039 331.644 283.644 332.154 283.25 332.685C283.171 332.802 283.093 332.901 282.994 333.019C282.56 333.588 282.126 334.158 281.672 334.708C281.219 335.257 280.745 335.807 280.292 336.356C279.72 337.005 279.148 337.653 278.556 338.262C278.122 338.733 277.668 339.185 277.215 339.637C276.445 340.442 275.617 341.208 274.789 341.954C274.434 342.288 274.078 342.621 273.704 342.916C273.25 343.329 272.796 343.701 272.343 344.074C271.817 344.489 271.292 344.904 270.767 345.319C270.077 345.864 269.373 346.39 268.648 346.887C268.079 347.278 267.529 347.669 266.939 348.061C266.368 348.454 265.775 348.807 265.184 349.181C263.902 349.966 262.6 350.712 261.278 351.399C260.628 351.753 259.957 352.087 259.267 352.421C258.754 352.676 258.222 352.912 257.689 353.167C257.532 353.246 257.373 353.304 257.235 353.363C256.644 353.619 256.051 353.874 255.46 354.109C249.977 356.347 244.119 357.86 238.005 358.527C237.256 358.626 236.486 358.685 235.717 358.744C234.908 358.803 234.1 358.862 233.291 358.882C232.423 358.921 231.555 358.94 230.668 358.94V358.999H131.026C104.502 358.999 83 337.591 83 311.182V171.145C83.0001 162.479 87.6433 154.471 95.1807 150.137L218.498 79.2402ZM169.013 190.506C185.025 190.506 198.006 203.43 198.006 219.373V289.48C198.006 291.649 196.24 293.408 194.062 293.408H178.874C171.25 293.408 165.069 287.253 165.068 279.661V194.434C165.068 192.264 166.834 190.506 169.013 190.506Z" fill="white"/>
<defs>
<linearGradient id="paint0_linear_1582_21048" x1="68.5014" y1="-77.498" x2="339.501" y2="461.502" gradientUnits="userSpaceOnUse">
<stop stop-color="#4D6DC3"/>
<stop offset="0.305" stop-color="#1E47B4"/>
<stop offset="0.695" stop-color="#062986"/>
</linearGradient>
<linearGradient id="paint1_linear_1582_21048" x1="68.5014" y1="-77.498" x2="339.501" y2="461.502" gradientUnits="userSpaceOnUse">
<stop stop-color="#13A8AE"/>
<stop offset="0.305" stop-color="#13A8AE"/>
<stop offset="0.695" stop-color="#038D8F"/>
</linearGradient>
</defs>
</svg>
