<svg width="557" height="557" viewBox="0 0 557 557" fill="none" xmlns="http://www.w3.org/2000/svg">
<g clip-path="url(#clip0_1582_21064)">
<rect width="557" height="557" fill="#1C70F7"/>
<mask id="mask0_1582_21064" style="mask-type:luminance" maskUnits="userSpaceOnUse" x="0" y="0" width="557" height="557">
<path d="M0 0H557V557H0V0Z" fill="white"/>
</mask>
<g mask="url(#mask0_1582_21064)">
<path d="M383.301 295.386C387.337 294.377 391.556 293.829 395.901 293.829C405.372 293.829 414.24 296.381 421.878 300.822C427.226 287.458 437.992 276.858 451.448 271.698C444.413 237.411 417.58 210.356 383.407 203.004C390.207 216.92 394.035 232.551 394.035 249.08C394.035 265.7 390.174 281.418 383.301 295.386Z" fill="white"/>
<path d="M224.164 244.988V232.656L249.979 218.909L283.751 234.236V284.296L295.894 286.342V201.178L321.844 188.183L357.937 198.525V304.534L363.612 305.142C369.311 300.59 375.995 297.223 383.287 295.389C390.161 281.417 394.035 265.704 394.035 249.083C394.035 191.048 346.991 144 288.957 144C235.565 144 191.507 183.834 184.795 235.396C198.366 234.586 212.126 237.792 224.164 244.988Z" fill="white"/>
<path d="M153.876 310.118C164.978 310.118 175.357 313.195 184.22 318.539V297.039L211.404 289.263L224.165 291.521V244.966C197.754 229.183 163.043 232.652 140.3 255.4C122.896 272.804 116.787 297.21 121.942 319.552C131.142 313.591 142.101 310.118 153.876 310.118Z" fill="white"/>
<path d="M120.351 340.662C120.351 339.672 120.503 338.76 120.807 337.93C121.111 337.097 121.548 336.387 122.124 335.802C122.705 335.212 123.396 334.761 124.211 334.434C125.017 334.111 125.938 333.946 126.975 333.946C128.007 333.946 128.928 334.111 129.739 334.434C130.545 334.761 131.236 335.212 131.803 335.802C132.369 336.387 132.807 337.097 133.111 337.93C133.415 338.76 133.567 339.672 133.567 340.662V383.96H155.988C156.96 383.96 157.867 384.08 158.71 384.324C159.549 384.564 160.281 384.923 160.908 385.402C161.539 385.877 162.036 386.471 162.4 387.176C162.764 387.89 162.949 388.71 162.949 389.64C162.949 390.552 162.764 391.363 162.4 392.068C162.036 392.782 161.539 393.372 160.908 393.851C160.281 394.325 159.549 394.68 158.71 394.929C157.867 395.168 156.96 395.288 155.988 395.288H128.219C127.026 395.288 125.943 395.159 124.985 394.897C124.022 394.634 123.193 394.196 122.507 393.588C121.816 392.98 121.286 392.174 120.913 391.174C120.539 390.17 120.351 388.922 120.351 387.424V340.662Z" fill="white"/>
<path d="M180.72 390.097C180.72 390.944 180.559 391.727 180.232 392.432C179.909 393.146 179.471 393.754 178.928 394.275C178.38 394.791 177.735 395.192 176.998 395.473C176.256 395.758 175.464 395.896 174.611 395.896C173.759 395.896 172.967 395.758 172.23 395.473C171.488 395.192 170.843 394.791 170.3 394.275C169.751 393.754 169.314 393.146 168.991 392.432C168.669 391.727 168.503 390.944 168.503 390.097V355.975C168.503 355.127 168.669 354.363 168.991 353.681C169.314 353.004 169.751 352.428 170.3 351.949C170.843 351.474 171.488 351.11 172.23 350.857C172.967 350.604 173.759 350.475 174.611 350.475C175.464 350.475 176.256 350.604 176.998 350.857C177.735 351.11 178.38 351.474 178.928 351.949C179.471 352.428 179.909 353.004 180.232 353.681C180.559 354.363 180.72 355.127 180.72 355.975V390.097ZM168.503 340.179C168.503 339.326 168.669 338.53 168.991 337.792C169.314 337.051 169.751 336.41 170.3 335.862C170.843 335.314 171.488 334.881 172.23 334.559C172.967 334.231 173.759 334.07 174.611 334.07C175.464 334.07 176.256 334.231 176.998 334.559C177.735 334.881 178.38 335.314 178.928 335.862C179.471 336.41 179.909 337.051 180.232 337.792C180.559 338.53 180.72 339.326 180.72 340.179C180.72 341.026 180.559 341.823 180.232 342.56C179.909 343.302 179.471 343.947 178.928 344.491C178.38 345.039 177.735 345.472 176.998 345.799C176.256 346.121 175.464 346.283 174.611 346.283C173.759 346.283 172.967 346.121 172.23 345.799C171.488 345.472 170.843 345.039 170.3 344.491C169.751 343.947 169.314 343.302 168.991 342.56C168.669 341.823 168.503 341.026 168.503 340.179Z" fill="white"/>
<path d="M187.646 359.136C187.222 357.92 187.047 356.782 187.13 355.718C187.208 354.654 187.494 353.728 187.978 352.935C188.466 352.148 189.134 351.526 189.986 351.07C190.834 350.614 191.829 350.388 192.962 350.388C194.095 350.388 195.035 350.591 195.772 350.991C196.514 351.397 197.108 351.88 197.564 352.438C198.02 352.995 198.356 353.557 198.568 354.119C198.78 354.691 198.928 355.124 199.011 355.428L207.091 383.017H207.27L215.355 355.428C215.433 355.124 215.585 354.691 215.797 354.119C216.009 353.557 216.341 352.995 216.797 352.438C217.253 351.88 217.852 351.397 218.589 350.991C219.331 350.591 220.266 350.388 221.399 350.388C222.532 350.388 223.532 350.618 224.393 351.083C225.255 351.549 225.927 352.184 226.416 352.981C226.899 353.783 227.176 354.723 227.236 355.792C227.296 356.869 227.111 358.012 226.687 359.228L215.323 391.249C215.042 392.06 214.738 392.769 214.411 393.377C214.088 393.985 213.641 394.492 213.075 394.898C212.508 395.303 211.766 395.607 210.845 395.81C209.919 396.008 208.698 396.114 207.178 396.114C205.663 396.114 204.442 396.003 203.52 395.791C202.599 395.579 201.853 395.266 201.286 394.852C200.72 394.437 200.277 393.926 199.964 393.318C199.651 392.709 199.351 392 199.07 391.189L187.646 359.136Z" fill="white"/>
<path d="M245.828 390.097C245.828 390.944 245.662 391.727 245.339 392.432C245.017 393.146 244.579 393.754 244.036 394.275C243.488 394.791 242.843 395.192 242.106 395.473C241.364 395.758 240.572 395.896 239.719 395.896C238.867 395.896 238.075 395.758 237.338 395.473C236.596 395.192 235.951 394.791 235.407 394.275C234.859 393.754 234.426 393.146 234.099 392.432C233.772 391.727 233.611 390.944 233.611 390.097V355.975C233.611 355.127 233.772 354.363 234.099 353.681C234.426 353.004 234.859 352.428 235.407 351.949C235.951 351.474 236.596 351.11 237.338 350.857C238.075 350.604 238.867 350.475 239.719 350.475C240.572 350.475 241.364 350.604 242.106 350.857C242.843 351.11 243.488 351.474 244.036 351.949C244.579 352.428 245.017 353.004 245.339 353.681C245.662 354.363 245.828 355.127 245.828 355.975V390.097ZM233.611 340.179C233.611 339.326 233.772 338.53 234.099 337.792C234.426 337.051 234.859 336.41 235.407 335.862C235.951 335.314 236.596 334.881 237.338 334.559C238.075 334.231 238.867 334.07 239.719 334.07C240.572 334.07 241.364 334.231 242.106 334.559C242.843 334.881 243.488 335.314 244.036 335.862C244.579 336.41 245.017 337.051 245.339 337.792C245.662 338.53 245.828 339.326 245.828 340.179C245.828 341.026 245.662 341.823 245.339 342.56C245.017 343.302 244.579 343.947 244.036 344.491C243.488 345.039 242.843 345.472 242.106 345.799C241.364 346.121 240.572 346.283 239.719 346.283C238.867 346.283 238.075 346.121 237.338 345.799C236.596 345.472 235.951 345.039 235.407 344.491C234.859 343.947 234.426 343.302 234.099 342.56C233.772 341.823 233.611 341.026 233.611 340.179Z" fill="white"/>
<path d="M253.302 355.945C253.302 354.12 253.731 352.656 254.592 351.555C255.454 350.454 256.836 349.901 258.738 349.901C260.641 349.901 262.032 350.454 262.903 351.555C263.773 352.656 264.206 354.12 264.206 355.945V357.493C265.1 356.378 266.063 355.355 267.099 354.425C268.131 353.494 269.255 352.692 270.485 352.024C271.711 351.356 273.047 350.836 274.493 350.458C275.94 350.085 277.529 349.901 279.247 349.901C280.463 349.901 281.689 350.011 282.928 350.232C284.163 350.458 285.351 350.817 286.494 351.31C287.636 351.808 288.714 352.457 289.718 353.259C290.718 354.056 291.589 355.046 292.33 356.221C293.067 357.391 293.652 358.769 294.076 360.349C294.505 361.929 294.712 363.735 294.712 365.757V389.882C294.712 390.693 294.624 391.462 294.44 392.195C294.256 392.923 293.938 393.558 293.482 394.106C293.026 394.655 292.409 395.088 291.63 395.41C290.852 395.737 289.875 395.898 288.7 395.898C287.521 395.898 286.544 395.737 285.766 395.41C284.987 395.088 284.37 394.655 283.914 394.106C283.458 393.558 283.135 392.923 282.942 392.195C282.748 391.462 282.652 390.693 282.652 389.882V368.162C282.652 366.941 282.486 365.821 282.15 364.803C281.818 363.781 281.32 362.896 280.662 362.159C280.003 361.417 279.183 360.842 278.202 360.427C277.216 360.012 276.078 359.805 274.783 359.805C273.729 359.805 272.646 360.017 271.531 360.441C270.416 360.869 269.403 361.487 268.495 362.293C267.583 363.103 266.832 364.103 266.247 365.287C265.658 366.471 265.363 367.816 265.363 369.313V389.882C265.363 390.693 265.271 391.462 265.077 392.195C264.884 392.923 264.557 393.558 264.105 394.106C263.649 394.655 263.032 395.088 262.249 395.41C261.47 395.737 260.494 395.898 259.319 395.898C258.144 395.898 257.167 395.737 256.389 395.41C255.606 395.088 254.989 394.655 254.532 394.106C254.076 393.558 253.759 392.923 253.574 392.195C253.395 391.462 253.302 390.693 253.302 389.882V355.945Z" fill="white"/>
<path d="M314.917 373.628C314.917 375.065 315.101 376.512 315.465 377.958C315.829 379.405 316.409 380.708 317.211 381.86C318.013 383.016 319.04 383.956 320.297 384.675C321.551 385.389 323.071 385.753 324.853 385.753C326.231 385.753 327.516 385.504 328.714 385.02C329.907 384.536 330.944 383.781 331.823 382.758C332.708 381.736 333.399 380.427 333.91 378.838C334.412 377.249 334.666 375.342 334.666 373.112C334.666 370.822 334.458 368.855 334.044 367.202C333.629 365.552 333.026 364.193 332.233 363.115C331.446 362.042 330.483 361.245 329.331 360.729C328.189 360.213 326.89 359.955 325.429 359.955C323.425 359.955 321.753 360.305 320.417 361.006C319.081 361.701 318.003 362.659 317.183 363.875C316.363 365.092 315.778 366.534 315.433 368.206C315.087 369.873 314.917 371.684 314.917 373.628ZM346.579 392.557C346.579 396.343 346.03 399.628 344.934 402.401C343.842 405.174 342.313 407.473 340.346 409.297C338.383 411.122 336.043 412.471 333.33 413.351C330.616 414.231 327.636 414.673 324.397 414.673C322.817 414.673 321.256 414.558 319.717 414.323C318.178 414.093 316.713 413.757 315.327 413.324C313.94 412.886 312.66 412.361 311.485 411.743C310.31 411.126 309.292 410.431 308.431 409.661C307.569 408.892 306.897 408.049 306.413 407.141C305.925 406.229 305.68 405.267 305.68 404.253C305.68 403.484 305.819 402.774 306.09 402.129C306.367 401.475 306.735 400.918 307.201 400.439C307.666 399.964 308.21 399.596 308.827 399.333C309.444 399.071 310.098 398.937 310.789 398.937C311.637 398.937 312.397 399.094 313.065 399.407C313.733 399.72 314.359 400.121 314.949 400.609C315.534 401.093 316.119 401.609 316.695 402.157C317.271 402.701 317.911 403.221 318.611 403.705C319.307 404.193 320.086 404.594 320.952 404.907C321.808 405.22 322.827 405.377 324.001 405.377C325.885 405.377 327.502 405.124 328.847 404.617C330.193 404.11 331.298 403.304 332.16 402.198C333.021 401.097 333.652 399.679 334.058 397.933C334.463 396.191 334.666 394.086 334.666 391.612V389H334.514C333.947 389.834 333.233 390.613 332.372 391.341C331.51 392.068 330.552 392.709 329.502 393.257C328.447 393.8 327.318 394.234 326.116 394.547C324.909 394.86 323.688 395.021 322.453 395.021C319.173 395.021 316.285 394.505 313.793 393.483C311.301 392.46 309.218 391.027 307.551 389.185C305.879 387.342 304.616 385.126 303.769 382.542C302.916 379.962 302.493 377.12 302.493 374.024C302.493 369.952 303.018 366.414 304.073 363.419C305.123 360.42 306.542 357.937 308.325 355.961C310.108 353.985 312.181 352.52 314.553 351.553C316.925 350.594 319.413 350.111 322.025 350.111C323.55 350.111 324.973 350.286 326.309 350.627C327.65 350.972 328.88 351.47 330.004 352.115C331.128 352.764 332.123 353.557 332.993 354.487C333.864 355.418 334.587 356.463 335.149 357.615H335.366V356.035C335.366 354.114 335.836 352.644 336.78 351.631C337.72 350.617 339.111 350.111 340.954 350.111C342.879 350.111 344.298 350.617 345.21 351.631C346.123 352.644 346.579 354.114 346.579 356.035V392.557Z" fill="white"/>
<path d="M375.771 357.53C375.771 359.474 375.927 361.4 376.241 363.316C376.559 365.228 377.056 367.057 377.733 368.794C378.415 370.535 379.272 372.147 380.304 373.635C381.34 375.119 382.579 376.413 384.026 377.509C385.477 378.606 387.135 379.467 389.001 380.094C390.862 380.729 392.954 381.043 395.271 381.043C397.639 381.043 399.776 380.729 401.679 380.094C403.581 379.467 405.267 378.606 406.741 377.509C408.216 376.413 409.478 375.119 410.524 373.635C411.569 372.147 412.431 370.535 413.113 368.794C413.794 367.057 414.292 365.228 414.605 363.316C414.923 361.4 415.08 359.474 415.08 357.53C415.08 355.591 414.923 353.656 414.605 351.73C414.292 349.8 413.794 347.962 413.113 346.212C412.431 344.461 411.569 342.83 410.524 341.315C409.478 339.804 408.216 338.495 406.741 337.385C405.267 336.275 403.581 335.409 401.679 334.778C399.776 334.151 397.639 333.833 395.271 333.833C392.954 333.833 390.862 334.151 389.001 334.778C387.135 335.409 385.477 336.275 384.026 337.385C382.579 338.495 381.34 339.804 380.304 341.315C379.272 342.83 378.415 344.461 377.733 346.212C377.056 347.962 376.559 349.8 376.241 351.73C375.927 353.656 375.771 355.591 375.771 357.53ZM356.266 357.53C356.266 354.002 356.612 350.574 357.303 347.23C357.998 343.894 359.049 340.762 360.463 337.837C361.872 334.916 363.646 332.24 365.788 329.807C367.93 327.375 370.445 325.288 373.334 323.551C376.218 321.815 379.484 320.456 383.141 319.488C386.795 318.521 390.839 318.033 395.271 318.033C399.707 318.033 403.766 318.521 407.442 319.488C411.122 320.456 414.416 321.828 417.328 323.588C420.239 325.353 422.777 327.453 424.942 329.886C427.112 332.313 428.913 334.999 430.346 337.933C431.788 340.868 432.857 343.996 433.562 347.308C434.266 350.62 434.616 354.029 434.616 357.53C434.616 361.082 434.266 364.523 433.562 367.849C432.857 371.175 431.788 374.289 430.369 377.187C428.941 380.085 427.154 382.729 424.998 385.124C422.842 387.515 420.308 389.57 417.383 391.283C414.462 392.997 411.159 394.328 407.479 395.273C403.802 396.217 399.735 396.687 395.271 396.687C390.839 396.687 386.795 396.213 383.141 395.254C379.484 394.296 376.218 392.96 373.334 391.247C370.445 389.533 367.93 387.474 365.788 385.064C363.646 382.66 361.872 380.006 360.463 377.109C359.049 374.211 357.998 371.106 357.303 367.794C356.612 364.482 356.266 361.059 356.266 357.53Z" fill="white"/>
<path d="M482.13 374.541C482.13 373.482 481.937 372.556 481.545 371.763C481.154 370.966 480.601 370.262 479.882 369.644C479.164 369.027 478.307 368.493 477.312 368.041C476.317 367.585 475.197 367.17 473.967 366.793L457.448 361.877C451.675 360.214 447.267 357.69 444.222 354.299C441.168 350.913 439.647 346.685 439.647 341.617C439.647 339.604 439.878 337.614 440.343 335.647C440.813 333.68 441.532 331.823 442.499 330.073C443.471 328.322 444.706 326.71 446.203 325.236C447.705 323.762 449.497 322.49 451.588 321.417C453.684 320.344 456.079 319.505 458.793 318.902C461.502 318.298 464.528 317.994 467.877 317.994C470.121 317.994 472.447 318.091 474.856 318.28C477.261 318.469 479.615 318.791 481.923 319.243C484.226 319.699 486.414 320.288 488.478 321.021C490.547 321.753 492.357 322.67 493.923 323.78C495.485 324.89 496.72 326.185 497.627 327.673C498.53 329.161 498.986 330.884 498.986 332.851C498.986 334.062 498.793 335.172 498.401 336.195C498.009 337.218 497.447 338.079 496.72 338.784C495.987 339.489 495.093 340.019 494.034 340.373C492.979 340.724 491.795 340.862 490.482 340.788C488.971 340.687 487.644 340.3 486.497 339.636C485.35 338.968 484.272 338.158 483.263 337.199C482.48 336.49 481.67 335.781 480.822 335.062C479.979 334.343 479.021 333.694 477.934 333.113C476.851 332.533 475.612 332.063 474.211 331.699C472.811 331.33 471.171 331.151 469.278 331.151C467.969 331.151 466.707 331.294 465.5 331.584C464.289 331.874 463.22 332.316 462.285 332.906C461.354 333.5 460.612 334.256 460.055 335.172C459.502 336.094 459.226 337.172 459.226 338.406C459.226 339.613 459.438 340.65 459.866 341.507C460.295 342.363 460.926 343.11 461.76 343.755C462.589 344.4 463.607 344.962 464.818 345.455C466.03 345.947 467.412 346.408 468.978 346.837L481.826 350.351C484.825 351.208 487.58 352.231 490.086 353.433C492.592 354.626 494.753 356.082 496.568 357.796C498.383 359.51 499.801 361.532 500.82 363.863C501.842 366.194 502.349 368.907 502.349 372.007C502.349 374.905 501.962 377.54 501.179 379.908C500.4 382.276 499.313 384.381 497.931 386.219C496.54 388.057 494.895 389.651 493.002 391.001C491.095 392.351 489.022 393.465 486.778 394.345C484.535 395.23 482.176 395.884 479.693 396.312C477.21 396.741 474.681 396.953 472.115 396.953C468.006 396.953 464.367 396.685 461.188 396.142C458.014 395.598 455.232 394.875 452.836 393.968C450.446 393.06 448.428 392.014 446.788 390.83C445.152 389.646 443.83 388.426 442.821 387.163C441.813 385.906 441.08 384.644 440.629 383.386C440.173 382.124 439.947 380.967 439.947 379.908C439.947 378.673 440.163 377.545 440.592 376.527C441.02 375.504 441.615 374.629 442.365 373.896C443.126 373.168 444.024 372.602 445.07 372.196C446.115 371.796 447.244 371.593 448.451 371.593C449.257 371.593 450.008 371.717 450.699 371.971C451.394 372.224 452.049 372.556 452.666 372.97C453.283 373.385 453.882 373.869 454.463 374.408C455.043 374.951 455.633 375.522 456.236 376.126C457.07 376.96 457.941 377.798 458.848 378.641C459.756 379.489 460.769 380.244 461.893 380.912C463.008 381.58 464.279 382.119 465.689 382.534C467.099 382.953 468.739 383.16 470.604 383.16C472.115 383.16 473.566 383.004 474.967 382.686C476.367 382.368 477.593 381.875 478.652 381.189C479.712 380.511 480.555 379.622 481.186 378.526C481.812 377.434 482.13 376.103 482.13 374.541Z" fill="white"/>
<path d="M61.5418 338.779H57.7137C57.4649 338.779 57.2346 338.732 57.0273 338.636C56.8154 338.539 56.6357 338.41 56.4837 338.253C56.3317 338.088 56.2165 337.899 56.129 337.678C56.0415 337.452 56 337.217 56 336.973C56 336.724 56.0415 336.489 56.129 336.268C56.2165 336.047 56.3317 335.853 56.4837 335.687C56.6357 335.526 56.8154 335.393 57.0273 335.301C57.2346 335.204 57.4649 335.158 57.7137 335.158H69.5943C69.8385 335.158 70.0688 335.204 70.2761 335.301C70.488 335.393 70.6677 335.526 70.8197 335.687C70.9717 335.853 71.0869 336.047 71.1744 336.268C71.2619 336.489 71.3034 336.724 71.3034 336.973C71.3034 337.217 71.2619 337.452 71.1744 337.678C71.0869 337.899 70.9717 338.088 70.8197 338.253C70.6677 338.41 70.488 338.539 70.2761 338.636C70.0688 338.732 69.8385 338.779 69.5943 338.779H65.6648V352.382C65.6648 352.663 65.6141 352.93 65.5082 353.17C65.3976 353.409 65.2502 353.621 65.0613 353.792C64.8771 353.967 64.6606 354.1 64.4072 354.202C64.1584 354.298 63.8912 354.349 63.6056 354.349C63.32 354.349 63.0528 354.298 62.7995 354.202C62.5507 354.1 62.3342 353.967 62.1453 353.792C61.9564 353.621 61.809 353.409 61.7031 353.17C61.5971 352.93 61.5418 352.663 61.5418 352.382V338.779Z" fill="white"/>
<path d="M78.4511 346.136V352.401C78.4511 352.682 78.3958 352.945 78.2899 353.184C78.1793 353.419 78.0365 353.626 77.8522 353.797C77.668 353.967 77.4515 354.101 77.2027 354.202C76.9586 354.299 76.6914 354.35 76.4057 354.35C76.1247 354.35 75.8576 354.299 75.6088 354.202C75.36 354.101 75.1435 353.967 74.9639 353.797C74.775 353.626 74.6322 353.419 74.5262 353.184C74.4203 352.945 74.365 352.682 74.365 352.401V336.913C74.365 336.628 74.4203 336.37 74.5262 336.13C74.6322 335.895 74.775 335.688 74.9639 335.518C75.1435 335.347 75.36 335.213 75.6088 335.112C75.8576 335.015 76.1247 334.969 76.4057 334.969C76.6914 334.969 76.9586 335.015 77.2027 335.112C77.4515 335.213 77.668 335.347 77.8522 335.518C78.0365 335.688 78.1793 335.895 78.2899 336.13C78.3958 336.37 78.4511 336.628 78.4511 336.913V342.713H86.2456V336.913C86.2456 336.628 86.2963 336.37 86.4068 336.13C86.5128 335.895 86.6602 335.688 86.8445 335.518C87.0287 335.347 87.2453 335.213 87.494 335.112C87.7382 335.015 88.0008 334.969 88.2864 334.969C88.572 334.969 88.8392 335.015 89.0879 335.112C89.3367 335.213 89.5486 335.347 89.7329 335.518C89.9171 335.688 90.0645 335.895 90.1705 336.13C90.2765 336.37 90.3317 336.628 90.3317 336.913V352.401C90.3317 352.682 90.2765 352.945 90.1705 353.184C90.0645 353.419 89.9171 353.626 89.7329 353.797C89.5486 353.967 89.3367 354.101 89.0879 354.202C88.8392 354.299 88.572 354.35 88.2864 354.35C88.0008 354.35 87.7382 354.299 87.494 354.202C87.2453 354.101 87.0287 353.967 86.8445 353.797C86.6602 353.626 86.5128 353.419 86.4068 353.184C86.2963 352.945 86.2456 352.682 86.2456 352.401V346.136H78.4511Z" fill="white"/>
<path d="M99.0869 346.097V350.773H107.499C107.734 350.773 107.955 350.819 108.157 350.907C108.365 350.999 108.544 351.114 108.696 351.271C108.848 351.423 108.968 351.598 109.056 351.805C109.148 352.012 109.189 352.234 109.189 352.469C109.189 352.703 109.148 352.92 109.056 353.127C108.968 353.33 108.848 353.51 108.696 353.666C108.544 353.814 108.365 353.938 108.157 354.026C107.955 354.113 107.734 354.159 107.499 354.159H97.4331C97.0968 354.159 96.7835 354.095 96.4841 353.966C96.1893 353.832 95.9359 353.657 95.7102 353.436C95.489 353.215 95.314 352.957 95.1896 352.662C95.0606 352.367 95.0007 352.054 95.0007 351.713V337.695C95.0007 337.349 95.0652 337.018 95.1988 336.709C95.3324 336.405 95.5121 336.133 95.7424 335.903C95.9681 335.673 96.2353 335.488 96.544 335.355C96.848 335.226 97.1797 335.157 97.5252 335.157H107.434C107.664 335.157 107.89 335.203 108.098 335.29C108.305 335.378 108.489 335.502 108.65 335.663C108.807 335.82 108.931 336.004 109.019 336.212C109.106 336.423 109.152 336.645 109.152 336.88C109.152 337.119 109.106 337.34 109.019 337.547C108.931 337.75 108.807 337.934 108.65 338.091C108.489 338.243 108.305 338.367 108.098 338.455C107.89 338.543 107.664 338.589 107.434 338.589H99.0869V342.748H106.775C107.006 342.748 107.218 342.795 107.425 342.887C107.623 342.974 107.803 343.094 107.955 343.246C108.107 343.398 108.227 343.573 108.319 343.78C108.402 343.978 108.448 344.2 108.448 344.425C108.448 344.651 108.402 344.868 108.319 345.07C108.227 345.273 108.107 345.453 107.955 345.605C107.803 345.757 107.623 345.876 107.425 345.964C107.218 346.056 107.006 346.097 106.775 346.097H99.0869Z" fill="white"/>
</g>
</g>
<defs>
<clipPath id="clip0_1582_21064">
<rect width="557" height="557" rx="100" fill="white"/>
</clipPath>
</defs>
</svg>
